# xmcd CD database file
#
# Track frame offsets:
#	150
#	47318
#	82861
#	98567
#	121134
#	140701
#	165646
#	177099
#	207180
#
# Disc length: 4553 seconds
#
# Revision: 8
# Processed by: cddbd v1.5.2PL0 Copyright (c) Steve Scherf et al.
# Submitted via: CDex 1.51
#
DISCID=6611c709
DTITLE=Various Artist - Beethoven and Liszt - Sviatoslav Richter  [Vol.3-5]  Sonatas Op.2-3, 101 and Sonata
DYEAR=1900
DGENRE=Piano
TTITLE0=Beethoven ~ Piano Sonata in C major, Op. 2 n°3 - 1. Allegro con brio  {1975}
TTITLE1=Beethoven ~ Piano Sonata in C major, Op. 2 n°3 - 2. Adagio
TTITLE2=Beethoven ~ Piano Sonata in C major, Op. 2 n°3 - 3. Scherzo, Allegro
TTITLE3=Beethoven ~ Piano Sonata in C major, Op. 2 n°3 - 4. Allegro assai
TTITLE4=Beethoven ~ Piano Sonata in A major, Op.101 - 1. Etwas lebhaft und mit den innigsten Empfindung  {1965}
TTITLE5=Beethoven ~ Piano Sonata in A major, Op.101 - 2. Lebaft, Marschmaessig 
TTITLE6=Beethoven ~ Piano Sonata in A major, Op.101 - 3. Langsam und sehnsuchtvoll 
TTITLE7=Beethoven ~ Piano Sonata in A major, Op.101 - 4. Geschwind, doch nicht zu sehr, und mit Entschlossenheit
TTITLE8=Liszt ~ Piano Sonata in B minor, S.178  {1965}
EXTD=
EXTT0=
EXTT1=
EXTT2=
EXTT3=
EXTT4=
EXTT5=
EXTT6=
EXTT7=
EXTT8=
PLAYORDER=
